<svg xmlns="http://www.w3.org/2000/svg" width="277.12" height="158.72" viewBox="0 0 207.84 119.04" preserveAspectRatio="none"><path fill="none" stroke="#ae6c4c" stroke-width="1.2" stroke-linecap="square" stroke-miterlimit="2" d="M2.047 6.314v109.04M204.632 2.21h-4.293M205.806 3.384v4.249"/><circle transform="translate(1.031 115.853)" r="1.08" cx="1.08" cy="1.08" fill="#ae6c4c" fill-rule="evenodd" stroke="#ae6c4c" stroke-width="1.2" stroke-linecap="square" stroke-linejoin="bevel"/><path transform="translate(1.198 116.024)" fill="#f19f77" fill-rule="evenodd" stroke="#f19f77" stroke-width=".24" stroke-linecap="square" stroke-linejoin="bevel" d="M1.805.207C1.055-.103.511-.065.177.32c-.334.384-.196.941.415 1.67C.398 1.367.38.935.538.698.905.411.846.234 1.805.207z"/><circle transform="translate(204.522 1.228)" r="1.08" cx="1.08" cy="1.08" fill="#ae6c4c" fill-rule="evenodd" stroke="#ae6c4c" stroke-width="1.2" stroke-linecap="square" stroke-linejoin="bevel"/><path transform="translate(204.69 1.399)" fill="#f19f77" fill-rule="evenodd" stroke="#f19f77" stroke-width=".24" stroke-linecap="square" stroke-linejoin="bevel" d="M1.805.207C1.055-.103.511-.065.177.32c-.334.384-.196.941.415 1.67C.398 1.367.38.935.538.698.905.411.846.234 1.805.207z"/><rect transform="translate(4.56 4.8)" fill="#ae6c4c" fill-rule="evenodd" stroke="#ae6c4c" stroke-width="1.2" stroke-linecap="square" stroke-linejoin="bevel" width="198" height="109.44" rx=".96" ry=".96"/><path fill="none" stroke="#ae6c4c" stroke-width="1.2" stroke-linecap="square" stroke-miterlimit="2" d="M5.26 6.325H1.921M3.373 117.092h65.923M69.25 116.982v-3.56M186.803 114.136v3.309M186.788 117.483h19.029M205.816 117.4V87.655M205.816 87.702h-3.933M200.31 2.363v3M205.79 7.707h-3.54"/></svg>