<?xml version="1.0" encoding="UTF-8" standalone="no"?>
<svg
   xmlns:dc="http://purl.org/dc/elements/1.1/"
   xmlns:cc="http://creativecommons.org/ns#"
   xmlns:rdf="http://www.w3.org/1999/02/22-rdf-syntax-ns#"
   xmlns:svg="http://www.w3.org/2000/svg"
   xmlns="http://www.w3.org/2000/svg"
   xmlns:sodipodi="http://sodipodi.sourceforge.net/DTD/sodipodi-0.dtd"
   xmlns:inkscape="http://www.inkscape.org/namespaces/inkscape"
   width="270.08"
   height="156.48"
   viewBox="0 0 202.56 117.36"
   preserveAspectRatio="none"
   version="1.1"
   id="svg112"
   sodipodi:docname="specific_data_bg-min.svg"
   inkscape:version="1.0.2-2 (e86c870879, 2021-01-15)">
  <metadata
     id="metadata118">
    <rdf:RDF>
      <cc:Work
         rdf:about="">
        <dc:format>image/svg+xml</dc:format>
        <dc:type
           rdf:resource="http://purl.org/dc/dcmitype/StillImage" />
      </cc:Work>
    </rdf:RDF>
  </metadata>
  <defs
     id="defs116" />
  <sodipodi:namedview
     pagecolor="#ffffff"
     bordercolor="#666666"
     borderopacity="1"
     objecttolerance="10"
     gridtolerance="10"
     guidetolerance="10"
     inkscape:pageopacity="0"
     inkscape:pageshadow="2"
     inkscape:window-width="1463"
     inkscape:window-height="983"
     id="namedview114"
     showgrid="false"
     inkscape:zoom="3.9062502"
     inkscape:cx="135.03999"
     inkscape:cy="78.239998"
     inkscape:window-x="2819"
     inkscape:window-y="263"
     inkscape:window-maximized="0"
     inkscape:current-layer="svg112" />
  <path
     fill="none"
     stroke="#ae6c4c"
     stroke-width="1.2"
     stroke-linecap="square"
     stroke-miterlimit="2"
     d="M3.234 6.834h4.898M.795 23.288h7.777"
     id="path98" />
  <circle
     transform="matrix(1 0 0 1 211.03 96.154)"
     r="1.08"
     cx="1.08"
     cy="1.08"
     fill="#ae6c4c"
     fill-rule="evenodd"
     stroke="#ae6c4c"
     stroke-width="1.2"
     stroke-linecap="square"
     stroke-linejoin="bevel"
     id="circle102" />
  <path
     fill="#f19f77"
     fill-rule="evenodd"
     stroke="#f19f77"
     stroke-width=".24"
     stroke-linecap="square"
     stroke-linejoin="bevel"
     d="M213.003 96.531c-.751-.309-1.294-.27-1.628.114-.334.384-.196.941.415 1.67-.194-.625-.212-1.056-.054-1.293.367-.286.307-.464 1.267-.49z"
     id="path104" />
  <circle
     transform="matrix(1 0 0 1 197.169 111.94)"
     r="1.08"
     cx="1.08"
     cy="1.08"
     fill="#ae6c4c"
     fill-rule="evenodd"
     stroke="#ae6c4c"
     stroke-width="1.2"
     stroke-linecap="square"
     stroke-linejoin="bevel"
     id="circle106" />
  <path
     fill="#f19f77"
     fill-rule="evenodd"
     stroke="#f19f77"
     stroke-width=".24"
     stroke-linecap="square"
     stroke-linejoin="bevel"
     d="M199.141 112.317c-.751-.31-1.294-.271-1.628.113-.334.385-.196.942.415 1.671-.194-.625-.212-1.056-.054-1.293.367-.286.308-.464 1.267-.491z"
     id="path108" />
  <path
     fill="none"
     stroke="#ae6c4c"
     stroke-width="1.2"
     stroke-linecap="square"
     stroke-miterlimit="2"
     d="M3.234.883v5.952M.856.875v22.413"
     id="path110" />
</svg>
