<svg xmlns="http://www.w3.org/2000/svg" width="282.24" height="134.4" viewBox="0 0 211.68 100.8" preserveAspectRatio="none"><rect transform="translate(2.64 2.4)" fill="#333" fill-rule="evenodd" stroke="#333" stroke-width="1.2" stroke-linecap="square" stroke-linejoin="bevel" width="206.64" height="96.24" rx=".96" ry=".96"/><circle transform="translate(3.56 3.373)" r="1.08" cx="1.08" cy="1.08" fill="#ae6c4c" fill-rule="evenodd" stroke="#ae6c4c" stroke-width="1.2" stroke-linecap="square" stroke-linejoin="bevel"/><path fill="#f19f77" fill-rule="evenodd" stroke="#f19f77" stroke-width=".24" stroke-linecap="square" stroke-linejoin="bevel" d="M5.532 3.75c-.751-.308-1.294-.27-1.628.114-.334.384-.196.941.415 1.671-.194-.625-.212-1.057-.054-1.294.366-.285.307-.463 1.267-.49z"/><circle transform="translate(3.718 95.36)" r="1.08" cx="1.08" cy="1.08" fill="#ae6c4c" fill-rule="evenodd" stroke="#ae6c4c" stroke-width="1.2" stroke-linecap="square" stroke-linejoin="bevel"/><path fill="#f19f77" fill-rule="evenodd" stroke="#f19f77" stroke-width=".24" stroke-linecap="square" stroke-linejoin="bevel" d="M5.69 95.738c-.75-.31-1.293-.271-1.627.113-.334.385-.196.942.415 1.671-.194-.625-.212-1.056-.054-1.294.366-.285.307-.463 1.267-.49z"/><circle transform="matrix(1 0 0 1 205.907 95.422)" r="1.08" cx="1.08" cy="1.08" fill="#ae6c4c" fill-rule="evenodd" stroke="#ae6c4c" stroke-width="1.2" stroke-linecap="square" stroke-linejoin="bevel"/><path fill="#f19f77" fill-rule="evenodd" stroke="#f19f77" stroke-width=".24" stroke-linecap="square" stroke-linejoin="bevel" d="M207.88 95.8c-.751-.31-1.294-.272-1.628.113-.334.384-.196.941.415 1.67-.194-.624-.212-1.056-.054-1.293.367-.286.307-.463 1.267-.49z"/></svg>